<svg xmlns="http://www.w3.org/2000/svg" width="145" height="177.901" viewBox="0 0 145 177.901">
  <g id="Groupe_55" data-name="Groupe 55" transform="translate(-589 -1674.849)">
    <path id="Soustraction_12" data-name="Soustraction 12" d="M72.5,145a73.03,73.03,0,0,1-14.611-1.473,72.1,72.1,0,0,1-25.924-10.909A72.716,72.716,0,0,1,5.7,100.72,72.122,72.122,0,0,1,1.473,87.111a73.2,73.2,0,0,1,0-29.223A72.088,72.088,0,0,1,12.382,31.965,72.716,72.716,0,0,1,44.28,5.7,72.142,72.142,0,0,1,57.889,1.473a73.2,73.2,0,0,1,29.222,0,72.1,72.1,0,0,1,25.924,10.909A72.7,72.7,0,0,1,139.3,44.28a72.13,72.13,0,0,1,4.225,13.609,73.209,73.209,0,0,1,0,29.223,72.116,72.116,0,0,1-10.909,25.924,72.716,72.716,0,0,1-31.9,26.267,72.13,72.13,0,0,1-13.609,4.224A73.033,73.033,0,0,1,72.5,145ZM16.152,90.449H31.027a50.88,50.88,0,0,0,18.4,26.835,50.1,50.1,0,0,0,30.667,9.967c9.566,0,18.027-2.115,25.148-6.287a18.878,18.878,0,0,0,3.823-3.5c1.557-1.934,3.055-4.882,1.356-7.942a5.349,5.349,0,0,0-5.006-2.865A14.993,14.993,0,0,0,98.8,108.7a37.023,37.023,0,0,1-8.971,3.681,38.4,38.4,0,0,1-9.738,1.227,39.6,39.6,0,0,1-11.136-1.533,35.362,35.362,0,0,1-9.795-4.6,34.022,34.022,0,0,1-7.878-7.322,37.3,37.3,0,0,1-5.386-9.7H80.095a9.273,9.273,0,0,0,3.277-.8A5.419,5.419,0,0,0,86.7,84.523a5.088,5.088,0,0,0-1.4-3.787,8.1,8.1,0,0,0-5.2-1.942H43.14l-.306-6.44.306-6.441H80.095a9.826,9.826,0,0,0,3.288-.865,5.415,5.415,0,0,0,3.316-5.07,5.117,5.117,0,0,0-3.288-4.962,9.747,9.747,0,0,0-3.316-.757H45.9a37.3,37.3,0,0,1,5.386-9.7,34.02,34.02,0,0,1,7.878-7.322,35.369,35.369,0,0,1,9.795-4.6,39.6,39.6,0,0,1,11.136-1.533,33.741,33.741,0,0,1,8.4,1.035A31.969,31.969,0,0,1,96.2,35.246a25.42,25.42,0,0,0,2.933,1.477,16.474,16.474,0,0,0,6.049,1.477,5.128,5.128,0,0,0,4.926-2.722,5.249,5.249,0,0,0,.387-4.143c-.7-2.245-2.713-4.189-4.281-5.424a23.758,23.758,0,0,0-3.267-2.165,41.613,41.613,0,0,0-22.848-6.288,50.1,50.1,0,0,0-30.667,9.968,50.879,50.879,0,0,0-18.4,26.835H16.152s-.082-.005-.219-.005c-1.009,0-6.052.289-6.229,5.983a5.373,5.373,0,0,0,1.333,4.069,6.4,6.4,0,0,0,4.541,1.63c.351,0,.573-.023.575-.023H28.727l-.306,6.441.306,6.44H16.114a8.24,8.24,0,0,0-3.382.784,5.961,5.961,0,0,0-1.592,9.071,7.365,7.365,0,0,0,4.9,1.8l.107,0Z" transform="translate(589 1704)" fill="#cbcbcb" opacity="0.68"/>
    <path id="Soustraction_13" data-name="Soustraction 13" d="M-3833.668,186.2a19.219,19.219,0,0,1-3.328-.3,19.421,19.421,0,0,1-6.469-2.33,19.031,19.031,0,0,1-5.157-4.478,14.888,14.888,0,0,1-3.01-6.236,19.621,19.621,0,0,1-.028-7.608,17.84,17.84,0,0,1,2.479-6.549,17.157,17.157,0,0,1,4.843-4.928c.207-.141.416-.278.621-.407.563.459,1.151.919,1.75,1.366a49.415,49.415,0,0,0,25.407,9.729,18.224,18.224,0,0,1,.06,6.988,19.529,19.529,0,0,1-2.6,7.069,15.17,15.17,0,0,1-4.921,4.853A18.188,18.188,0,0,1-3833.668,186.2Zm6.74-45.773a19.216,19.216,0,0,1-3.321-.307,15.622,15.622,0,0,1-5.417-1.979,14.237,14.237,0,0,1-4.1-3.794,12.986,12.986,0,0,1-2.368-6.447h28.993c-.3.7-.646,1.527-1.062,2.524a16.667,16.667,0,0,1-5.036,7.5A12.108,12.108,0,0,1-3826.928,140.426Zm19.686-23.116h0a9.019,9.019,0,0,0-4.055-1.066h-29.277a39.9,39.9,0,0,1,4.772-10.887c.437-.676.9-1.346,1.362-1.993h23.138a9.776,9.776,0,0,0,3.288-.865,5.414,5.414,0,0,0,3.316-5.07,5.116,5.116,0,0,0-3.288-4.962,9.719,9.719,0,0,0-3.316-.757h-10.857c3.438-2.421,7.633-5.134,12.466-8.067,5.733-3.47,9.954-6.15,12.546-7.965a34.536,34.536,0,0,0,3.029-2.382c1.688.879,4.958,2.353,7.9,2.353a5.127,5.127,0,0,0,4.925-2.721c1.061-2.01.813-4.147-.737-6.354a18.244,18.244,0,0,0-4.678-4.319c.123-.477.23-.976.32-1.482a21.046,21.046,0,0,0-4.17-16.994c-3.86-5.076-9.512-8.3-16.8-9.586a41.176,41.176,0,0,0-7.093-.668c-5.233,0-9.6,1.284-12.974,3.815-4.789,3.59-9.38,9.406-13.647,17.286a22.6,22.6,0,0,1-6.343,8.105,13.324,13.324,0,0,1-8.136,2.7,16.866,16.866,0,0,1-2.917-.265,15.79,15.79,0,0,1-5.827-2.217,15.4,15.4,0,0,1-4.4-4.344,17.183,17.183,0,0,1-2.526-5.4,12.737,12.737,0,0,1-.21-5.382,37.552,37.552,0,0,1,3.751-10.856,50.744,50.744,0,0,1,7.34-10.374,50.422,50.422,0,0,1,10.6-8.866,63.55,63.55,0,0,1,13.522-6.333,60.918,60.918,0,0,1,19.551-3.1,78.99,78.99,0,0,1,13.657,1.247,79.445,79.445,0,0,1,15.67,4.374,61.76,61.76,0,0,1,13.132,7.148,54.772,54.772,0,0,1,10.191,9.4,45.909,45.909,0,0,1,6.846,11.128,43.893,43.893,0,0,1,3.323,12.149,42.585,42.585,0,0,1-.375,12.46,42.036,42.036,0,0,1-2.65,9.138,32.959,32.959,0,0,1-4.449,7.556,54.336,54.336,0,0,1-11.854,11.219c-4.314,2.952-12.1,7.921-23.14,14.769a82.454,82.454,0,0,0-7.489,5.243,30.669,30.669,0,0,0-3.436,3.18Z" transform="translate(4480.396 1666.551)" fill="#a3d9ff"/>
  </g>
</svg>
